<?xml version="1.0" encoding="UTF-8"?>
<svg id="Layer_1" data-name="Layer 1" xmlns="http://www.w3.org/2000/svg" viewBox="0 0 318.98 69.76">
  <defs>
    <style>
      .cls-1 {
        fill: #fbb040;
      }

      .cls-2 {
        fill: #fff;
      }
    </style>
  </defs>
  <path class="cls-2" d="M36,43.45h-3.36l-3.55-12.15-5.09-18.29-.48-.05-5.09,18.34-3.5,12.15h-3.36L1.78,9.84h2.64l4.7,16.08,4.18,14.83,4.13-14.83,4.66-16.08h3.41l4.66,16.08,4.18,14.83,4.13-14.83,4.66-16.08h2.64l-9.75,33.6Z"/>
  <path class="cls-2" d="M47.81,30.24c0-7.92,5.18-13.73,12.48-13.73,4.99,0,9.02,2.74,11.09,6.86v-6.34h2.54v26.4h-2.54v-6.29c-2.06,4.13-6.1,6.82-11.04,6.82-7.39,0-12.53-5.81-12.53-13.73ZM71.43,30.24c0-6.53-4.66-11.28-10.75-11.28s-10.32,4.75-10.32,11.28,4.22,11.28,10.32,11.28,10.75-4.71,10.75-11.28Z"/>
  <path class="cls-2" d="M81.79,17.04h2.54v6.19c1.68-4.03,4.94-6.72,10.13-6.72,5.95,0,9.5,3.65,9.5,10.13v16.8h-2.54v-16.47c0-5.33-2.83-8.02-7.49-8.02-6.14,0-9.6,4.56-9.6,11.14v13.35h-2.54v-26.4Z"/>
  <path class="cls-2" d="M110.45,30.24c0-7.92,5.18-13.73,12.48-13.73,5.04,0,9.07,2.78,11.14,6.96V6.48h2.54v36.96h-2.54v-6.43c-2.06,4.22-6.1,6.96-11.09,6.96-7.39,0-12.53-5.81-12.53-13.73ZM134.07,30.24c0-6.53-4.66-11.28-10.75-11.28s-10.32,4.75-10.32,11.28,4.22,11.28,10.32,11.28,10.75-4.71,10.75-11.28Z"/>
  <path class="cls-2" d="M143.18,30.34c0-8.06,5.62-13.83,13.34-13.83,8.11,0,13.2,6,13.06,14.54h-23.81c.29,6.48,4.75,10.47,10.95,10.47,4.18,0,7.73-1.78,9.5-5.23h2.64c-2.16,5.14-6.91,7.63-12.19,7.63-7.78,0-13.49-5.42-13.49-13.58ZM166.9,28.66c-.62-5.71-4.56-9.75-10.37-9.75s-10.03,4.03-10.66,9.75h21.03Z"/>
  <path class="cls-2" d="M175.82,17.04h2.54v6.53c1.54-4.13,4.85-7.06,9.98-7.06.67,0,1.3.05,1.73.14v2.54c-.43-.05-1.06-.1-1.68-.1-6.1,0-10.03,4.46-10.03,11.52v12.82h-2.54v-26.4Z"/>
  <path class="cls-1" d="M193.5,43.45v-20.07c0-2.43.35-4.6,1.07-6.53.71-1.92,1.74-3.57,3.09-4.94,1.35-1.37,2.97-2.42,4.86-3.15s4.03-1.09,6.42-1.09,4.51.36,6.47,1.07c1.96.71,3.65,1.72,5.07,3.02,1.42,1.3,2.53,2.85,3.33,4.65.8,1.8,1.2,3.8,1.2,5.98,0,2.05-.36,3.93-1.07,5.64-.71,1.72-1.69,3.2-2.94,4.45s-2.76,2.22-4.52,2.91c-1.77.69-3.69,1.04-5.77,1.04-2.46,0-4.76-.48-6.89-1.46-2.13-.97-4.01-2.39-5.64-4.26l.62-6.71c1.14,1.7,2.56,2.99,4.24,3.87,1.68.88,3.56,1.33,5.64,1.33,1.25,0,2.37-.16,3.38-.47s1.85-.77,2.55-1.38c.69-.61,1.23-1.33,1.61-2.16s.57-1.79.57-2.86-.18-1.98-.55-2.81-.87-1.54-1.51-2.13c-.64-.59-1.42-1.05-2.34-1.38-.92-.33-1.95-.49-3.09-.49s-2.16.17-3.04.52c-.88.35-1.64.84-2.26,1.48-.62.64-1.09,1.44-1.4,2.39-.31.95-.47,2.04-.47,3.25v20.28h-8.63Z"/>
  <path class="cls-1" d="M253.41,26.03c0-1.46-.16-2.81-.47-4.06-.31-1.25-.82-2.33-1.53-3.25-.71-.92-1.62-1.64-2.73-2.16s-2.44-.78-4-.78-2.89.27-3.98.81c-1.09.54-1.99,1.27-2.7,2.18-.71.92-1.22,2-1.53,3.25-.31,1.25-.47,2.58-.47,4v17.42h-8.16v-17.47c0-2.67.36-5.12,1.09-7.36.73-2.24,1.8-4.16,3.22-5.77,1.42-1.61,3.19-2.88,5.3-3.8,2.11-.92,4.54-1.38,7.28-1.38s5.22.46,7.33,1.38c2.11.92,3.88,2.18,5.3,3.8,1.42,1.61,2.5,3.54,3.25,5.77.75,2.24,1.12,4.69,1.12,7.36v17.47h-8.32v-17.42ZM231.83,27.33h26.1v7.38h-26.1v-7.38Z"/>
  <path class="cls-1" d="M291.89,16.04h-10.19c-.49,0-.93.07-1.33.21-.4.14-.73.34-.99.6-.26.26-.46.57-.6.94-.14.36-.21.79-.21,1.27,0,.38.06.75.18,1.12.12.36.31.73.57,1.09.26.36.6.74,1.01,1.12.42.38.94.81,1.56,1.3,1.28,1.04,2.38,2.03,3.3,2.96.92.94,1.66,1.86,2.24,2.78.57.92,1,1.84,1.27,2.76.28.92.42,1.86.42,2.83,0,1.32-.23,2.5-.7,3.54s-1.16,1.92-2.08,2.65c-.92.73-2.07,1.28-3.46,1.66-1.39.38-3,.57-4.84.57h-12.84v-7.49h11.18c.49,0,.93-.07,1.33-.21.4-.14.74-.33,1.01-.57.28-.24.49-.55.62-.91.14-.36.21-.77.21-1.22,0-.42-.07-.81-.21-1.2-.14-.38-.35-.76-.62-1.14-.28-.38-.63-.78-1.07-1.2-.43-.42-.96-.87-1.59-1.35-1.25-.97-2.31-1.92-3.2-2.83-.88-.92-1.61-1.84-2.18-2.76-.57-.92-1-1.84-1.27-2.76-.28-.92-.42-1.86-.42-2.83,0-1.32.23-2.5.7-3.54.47-1.04,1.16-1.92,2.08-2.65.92-.73,2.07-1.28,3.46-1.66,1.39-.38,3-.57,4.84-.57h11.8v7.49Z"/>
  <path class="cls-1" d="M317.57,16.04h-10.19c-.49,0-.93.07-1.33.21-.4.14-.73.34-.99.6-.26.26-.46.57-.6.94-.14.36-.21.79-.21,1.27,0,.38.06.75.18,1.12.12.36.31.73.57,1.09.26.36.6.74,1.01,1.12.42.38.94.81,1.56,1.3,1.28,1.04,2.38,2.03,3.3,2.96.92.94,1.66,1.86,2.24,2.78.57.92,1,1.84,1.27,2.76.28.92.42,1.86.42,2.83,0,1.32-.23,2.5-.7,3.54s-1.16,1.92-2.08,2.65c-.92.73-2.07,1.28-3.46,1.66-1.39.38-3,.57-4.84.57h-12.84v-7.49h11.18c.49,0,.93-.07,1.33-.21.4-.14.74-.33,1.01-.57.28-.24.49-.55.62-.91.14-.36.21-.77.21-1.22,0-.42-.07-.81-.21-1.2-.14-.38-.35-.76-.62-1.14-.28-.38-.63-.78-1.07-1.2-.43-.42-.96-.87-1.59-1.35-1.25-.97-2.31-1.92-3.2-2.83-.88-.92-1.61-1.84-2.18-2.76-.57-.92-1-1.84-1.27-2.76-.28-.92-.42-1.86-.42-2.83,0-1.32.23-2.5.7-3.54.47-1.04,1.16-1.92,2.08-2.65.92-.73,2.07-1.28,3.46-1.66,1.39-.38,3-.57,4.84-.57h11.8v7.49Z"/>
</svg>